<svg width="84" height="84" viewBox="0 0 84 84" fill="none" xmlns="http://www.w3.org/2000/svg">
<path d="M56.2126 8.58901C57.1968 9.57353 57.7497 10.9086 57.7497 12.3008C57.7497 13.6929 57.1968 15.028 56.2126 16.0125L30.2251 42L56.2126 67.9875C57.1689 68.9777 57.6981 70.3038 57.6861 71.6804C57.6742 73.0569 57.1221 74.3737 56.1487 75.3471C55.1753 76.3205 53.8585 76.8726 52.482 76.8846C51.1054 76.8965 49.7793 76.3673 48.7891 75.411L19.0899 45.7118C18.1056 44.7272 17.5527 43.3921 17.5527 42C17.5527 40.6079 18.1056 39.2728 19.0899 38.2883L48.7891 8.58901C49.7736 7.60479 51.1088 7.05188 52.5009 7.05188C53.893 7.05188 55.2281 7.60479 56.2126 8.58901Z" fill="#009A16"/>
</svg>
