<svg width="84" height="84" viewBox="0 0 84 84" fill="none" xmlns="http://www.w3.org/2000/svg">
<path d="M27.7882 8.58901C26.804 9.57353 26.2511 10.9086 26.2511 12.3008C26.2511 13.6929 26.804 15.028 27.7882 16.0125L53.7757 42L27.7882 67.9875C26.8319 68.9777 26.3027 70.3038 26.3147 71.6804C26.3267 73.0569 26.8788 74.3737 27.8522 75.3471C28.8256 76.3205 30.1424 76.8726 31.5189 76.8846C32.8954 76.8965 34.2216 76.3673 35.2117 75.411L64.911 45.7118C65.8952 44.7272 66.4481 43.3921 66.4481 42C66.4481 40.6079 65.8952 39.2728 64.911 38.2883L35.2117 8.58901C34.2272 7.60479 32.8921 7.05188 31.5 7.05188C30.1079 7.05188 28.7728 7.60479 27.7882 8.58901Z" fill="#009A16"/>
</svg>
