<svg width="34" height="34" viewBox="0 0 34 34" fill="none" xmlns="http://www.w3.org/2000/svg">
<circle cx="17" cy="17" r="16.5" fill="#FAFAFA" stroke="#009A16"/>
<path d="M18.41 17.0002L22.71 12.7102C22.8983 12.5219 23.0041 12.2665 23.0041 12.0002C23.0041 11.7339 22.8983 11.4785 22.71 11.2902C22.5217 11.1019 22.2663 10.9961 22 10.9961C21.7337 10.9961 21.4783 11.1019 21.29 11.2902L17 15.5902L12.71 11.2902C12.5217 11.1019 12.2663 10.9961 12 10.9961C11.7337 10.9961 11.4783 11.1019 11.29 11.2902C11.1017 11.4785 10.9959 11.7339 10.9959 12.0002C10.9959 12.2665 11.1017 12.5219 11.29 12.7102L15.59 17.0002L11.29 21.2902C11.1963 21.3831 11.1219 21.4937 11.0711 21.6156C11.0203 21.7375 10.9942 21.8682 10.9942 22.0002C10.9942 22.1322 11.0203 22.2629 11.0711 22.3848C11.1219 22.5066 11.1963 22.6172 11.29 22.7102C11.383 22.8039 11.4936 22.8783 11.6154 22.9291C11.7373 22.9798 11.868 23.006 12 23.006C12.132 23.006 12.2627 22.9798 12.3846 22.9291C12.5064 22.8783 12.617 22.8039 12.71 22.7102L17 18.4102L21.29 22.7102C21.383 22.8039 21.4936 22.8783 21.6154 22.9291C21.7373 22.9798 21.868 23.006 22 23.006C22.132 23.006 22.2627 22.9798 22.3846 22.9291C22.5064 22.8783 22.617 22.8039 22.71 22.7102C22.8037 22.6172 22.8781 22.5066 22.9289 22.3848C22.9797 22.2629 23.0058 22.1322 23.0058 22.0002C23.0058 21.8682 22.9797 21.7375 22.9289 21.6156C22.8781 21.4937 22.8037 21.3831 22.71 21.2902L18.41 17.0002Z" fill="#474747"/>
</svg>
