<svg width="35" height="34" viewBox="0 0 35 34" fill="none" xmlns="http://www.w3.org/2000/svg">
<circle cx="17.8" cy="17" r="16.5" fill="#FAFAFA" stroke="#009A16"/>
<path d="M10.3625 18.0625C10.9493 18.0625 11.425 17.5868 11.425 17C11.425 16.4132 10.9493 15.9375 10.3625 15.9375C9.77569 15.9375 9.29999 16.4132 9.29999 17C9.29999 17.5868 9.77569 18.0625 10.3625 18.0625Z" stroke="#474747" stroke-width="1.5" stroke-linecap="round" stroke-linejoin="round"/>
<path d="M18.1542 18.0625C18.741 18.0625 19.2167 17.5868 19.2167 17C19.2167 16.4132 18.741 15.9375 18.1542 15.9375C17.5674 15.9375 17.0917 16.4132 17.0917 17C17.0917 17.5868 17.5674 18.0625 18.1542 18.0625Z" stroke="#474747" stroke-width="1.5" stroke-linecap="round" stroke-linejoin="round"/>
<path d="M25.9458 18.0625C26.5326 18.0625 27.0083 17.5868 27.0083 17C27.0083 16.4132 26.5326 15.9375 25.9458 15.9375C25.359 15.9375 24.8833 16.4132 24.8833 17C24.8833 17.5868 25.359 18.0625 25.9458 18.0625Z" stroke="#474747" stroke-width="1.5" stroke-linecap="round" stroke-linejoin="round"/>
</svg>
